PathFileType	4	(X/Y/Z)	C:\Users\WrightLab\Desktop\Jo\P5V139.trc
DataRate	CameraRate	NumFrames	NumMarkers	Units	OrigDataRate	OrigDataStartFrame	OrigNumFrames
100.00	100.00	       40	19	mm	100.00	500	       571
Frame#	Time	Headset_Front			Headset_Back			Headset_Left			Headset_Right			Left_Shoulder			Right_Shoulder			Sternum			C7			Left Elbow			Right Elbow			Left Wrist			Right Wrist			Left ASIS			Right ASIS			S2			Left Knee			Right Knee			Left Ankle			Right Ankle			
		X1	Y1	Z1	X2	Y2	Z2	X3	Y3	Z3	X4	Y4	Z4	X5	Y5	Z5	X6	Y6	Z6	X7	Y7	Z7	X8	Y8	Z8	X9	Y9	Z9	X10	Y10	Z10	X11	Y11	Z11	X12	Y12	Z12	X13	Y13	Z13	X14	Y14	Z14	X15	Y15	Z15	X16	Y16	Z16	X17	Y17	Z17	X18	Y18	Z18	X19	Y19	Z19	

500	4.990																																														-327.35019	549.19147	1868.43213										
501	5.000																																														-330.67136	549.88855	1877.03577										
502	5.010																																														-333.76849	550.33594	1884.59363										
503	5.020																																														-336.61432	551.23627	1896.06702										
504	5.030																																														-338.78342	551.25916	1904.13391										
505	5.040																																														-340.12946	552.47040	1913.80249										
506	5.050																																														-340.21677	552.72815	1921.46899										
507	5.060																																														-339.88022	553.37640	1931.54138										
508	5.070																																														-339.25574	553.33319	1940.40369										
509	5.080																																														-338.92020	554.52924	1948.72217										
510	5.090																																														-338.59222	555.25214	1957.23999										
511	5.100																																														-338.29083	555.61084	1967.50806										
512	5.110																																														-338.18665	556.51227	1978.00452										
513	5.120																																														-338.43884	557.99829	1986.58362										
514	5.130																																														-338.56494	558.79688	1997.03198										
515	5.140																																														-338.92496	559.51855	2007.66467										
516	5.150																																														-339.34961	560.56445	2017.68250										
517	5.160																																														-340.03976	561.06885	2026.39368										
518	5.170																																														-340.81696	561.65326	2036.72705										
519	5.180																																														-341.88992	562.20343	2045.48169										
520	5.190																																														-342.97894	562.36005	2055.27100										
521	5.200																																														-343.81656	563.23206	2065.09473										
522	5.210																																														-344.19824	564.28442	2071.45679										
523	5.220																																														-343.98508	565.37769	2079.67261										
524	5.230																																														-344.13034	567.24847	2085.21167										
525	5.240																																														-343.79739	568.19568	2091.23022										
526	5.250																																														-344.17810	569.49976	2097.06250										
527	5.260																																														-343.97296	570.09613	2101.87305										
528	5.270																																														-344.32999	570.10248	2107.03955										
529	5.280																																														-344.66864	570.07434	2111.43481										
530	5.290																																														-344.92847	569.24005	2117.20313										
531	5.300																																														-345.80374	568.66931	2121.47876										
532	5.310																																														-346.94482	567.75464	2126.38916										
533	5.320																																														-348.03827	566.76532	2131.02856										
534	5.330																																														-350.09161	566.14417	2136.42651										
535	5.340																																														-351.81723	565.45874	2142.33618										
536	5.350																																														-353.60788	565.19702	2148.13452										
537	5.360																																														-356.14978	564.88818	2153.32910										
538	5.370																																														-357.78397	564.18713	2157.96118										
539	5.380																																														-360.32199	563.52173	2163.03125										
